<mxfile host="app.diagrams.net" agent="Mozilla/5.0 (Windows NT 10.0; Win64; x64) AppleWebKit/537.36 (KHTML, like Gecko) Chrome/131.0.0.0 Safari/537.36" version="25.0.3">
  <diagram id="C5RBs43oDa-KdzZeNtuy" name="Page-1">
    <mxGraphModel dx="880" dy="468" grid="1" gridSize="10" guides="1" tooltips="1" connect="1" arrows="1" fold="1" page="1" pageScale="1" pageWidth="827" pageHeight="1169" math="0" shadow="0">
      <root>
        <mxCell id="WIyWlLk6GJQsqaUBKTNV-0" />
        <mxCell id="WIyWlLk6GJQsqaUBKTNV-1" parent="WIyWlLk6GJQsqaUBKTNV-0" />
        <mxCell id="XqBOSnvqJ_fvrhPtoBfL-4" value="" style="edgeStyle=orthogonalEdgeStyle;rounded=0;orthogonalLoop=1;jettySize=auto;html=1;" edge="1" parent="WIyWlLk6GJQsqaUBKTNV-1" source="XqBOSnvqJ_fvrhPtoBfL-0" target="XqBOSnvqJ_fvrhPtoBfL-3">
          <mxGeometry relative="1" as="geometry">
            <Array as="points">
              <mxPoint x="340" y="250" />
              <mxPoint x="340" y="250" />
            </Array>
          </mxGeometry>
        </mxCell>
        <mxCell id="XqBOSnvqJ_fvrhPtoBfL-0" value="inicio" style="ellipse;whiteSpace=wrap;html=1;aspect=fixed;fillColor=#dae8fc;strokeColor=#6c8ebf;" vertex="1" parent="WIyWlLk6GJQsqaUBKTNV-1">
          <mxGeometry x="300" y="100" width="80" height="80" as="geometry" />
        </mxCell>
        <mxCell id="XqBOSnvqJ_fvrhPtoBfL-6" value="" style="edgeStyle=orthogonalEdgeStyle;rounded=0;orthogonalLoop=1;jettySize=auto;html=1;" edge="1" parent="WIyWlLk6GJQsqaUBKTNV-1" source="XqBOSnvqJ_fvrhPtoBfL-3" target="XqBOSnvqJ_fvrhPtoBfL-5">
          <mxGeometry relative="1" as="geometry" />
        </mxCell>
        <mxCell id="XqBOSnvqJ_fvrhPtoBfL-3" value="&lt;p&gt;mostrar mensaje&lt;/p&gt;&lt;p&gt;&quot;por favor, ingrese una palabra&quot;&lt;/p&gt;" style="shape=parallelogram;perimeter=parallelogramPerimeter;whiteSpace=wrap;html=1;fixedSize=1;fillColor=#ffe6cc;strokeColor=#d79b00;" vertex="1" parent="WIyWlLk6GJQsqaUBKTNV-1">
          <mxGeometry x="265" y="220" width="150" height="80" as="geometry" />
        </mxCell>
        <mxCell id="XqBOSnvqJ_fvrhPtoBfL-8" value="" style="edgeStyle=orthogonalEdgeStyle;rounded=0;orthogonalLoop=1;jettySize=auto;html=1;" edge="1" parent="WIyWlLk6GJQsqaUBKTNV-1" source="XqBOSnvqJ_fvrhPtoBfL-5" target="XqBOSnvqJ_fvrhPtoBfL-7">
          <mxGeometry relative="1" as="geometry" />
        </mxCell>
        <mxCell id="XqBOSnvqJ_fvrhPtoBfL-5" value="definir la variable cantidad_letras y asignarle la longitud de palabras ingresadas" style="whiteSpace=wrap;html=1;fillColor=#d5e8d4;strokeColor=#82b366;" vertex="1" parent="WIyWlLk6GJQsqaUBKTNV-1">
          <mxGeometry x="277.5" y="340" width="125" height="100" as="geometry" />
        </mxCell>
        <mxCell id="XqBOSnvqJ_fvrhPtoBfL-10" value="" style="edgeStyle=orthogonalEdgeStyle;rounded=0;orthogonalLoop=1;jettySize=auto;html=1;" edge="1" parent="WIyWlLk6GJQsqaUBKTNV-1" source="XqBOSnvqJ_fvrhPtoBfL-7" target="XqBOSnvqJ_fvrhPtoBfL-9">
          <mxGeometry relative="1" as="geometry" />
        </mxCell>
        <mxCell id="XqBOSnvqJ_fvrhPtoBfL-7" value="mostrar mensaje: &quot;la palabra ingresada tiene&quot;, cantidad_letras, &quot;letras&quot;" style="shape=parallelogram;perimeter=parallelogramPerimeter;whiteSpace=wrap;html=1;fixedSize=1;fillColor=#ffe6cc;strokeColor=#d79b00;" vertex="1" parent="WIyWlLk6GJQsqaUBKTNV-1">
          <mxGeometry x="253.75" y="495" width="172.5" height="90" as="geometry" />
        </mxCell>
        <mxCell id="XqBOSnvqJ_fvrhPtoBfL-9" value="fin" style="ellipse;whiteSpace=wrap;html=1;fillColor=#dae8fc;strokeColor=#6c8ebf;" vertex="1" parent="WIyWlLk6GJQsqaUBKTNV-1">
          <mxGeometry x="300" y="640" width="80" height="80" as="geometry" />
        </mxCell>
      </root>
    </mxGraphModel>
  </diagram>
</mxfile>
